<svg width="24" height="24" viewBox="0 0 24 24" fill="none" xmlns="http://www.w3.org/2000/svg">
<g clip-path="url(#clip0_10_2818)">
<path fill-rule="evenodd" clip-rule="evenodd" d="M14.4834 21.2701C12.3826 21.8328 10.153 21.6657 8.15958 20.7961C6.16614 19.9265 4.527 18.4059 3.51052 16.4832C3.36208 16.2016 3.10786 15.9905 2.80377 15.8964C2.49969 15.8022 2.17065 15.8327 1.88905 15.9812C1.60745 16.1296 1.39635 16.3838 1.30219 16.6879C1.20803 16.9919 1.23852 17.321 1.38696 17.6026C3.94243 22.4494 9.58846 25.0659 15.1049 23.5891C21.5056 21.8735 25.3028 15.2943 23.5884 8.8951C21.8727 2.49468 15.2945 -1.30238 8.895 0.411994C6.35939 1.0913 4.11645 2.58319 2.50986 4.65907C0.903259 6.73495 0.021625 9.28032 4.37626e-05 11.9052C-0.0083545 12.9885 1.1938 13.5871 2.05522 13.0077L5.26215 10.847C6.4715 10.0312 5.66047 8.14649 4.23757 8.46441L2.96823 8.74754C3.52775 7.19476 4.47827 5.81251 5.72796 4.73431C6.97766 3.65611 8.48431 2.91839 10.1024 2.59242C11.7204 2.26645 13.3952 2.36324 14.9649 2.87345C16.5346 3.38365 17.9463 4.29003 19.0634 5.50502C20.1806 6.72002 20.9655 8.20257 21.3424 9.80946C21.7193 11.4164 21.6754 13.0933 21.215 14.6783C20.7546 16.2633 19.8931 17.7027 18.714 18.8576C17.5348 20.0125 16.0777 20.8438 14.4834 21.2713V21.2701Z" fill="#583213"/>
</g>
<defs>
<clipPath id="clip0_10_2818">
<rect width="24" height="24" fill="white" transform="translate(0 0.000366211)"/>
</clipPath>
</defs>
</svg>
